<svg id="Layer_1" enable-background="new 0 0 504.042 504.042" height="512" viewBox="0 0 504.042 504.042" width="512" xmlns="http://www.w3.org/2000/svg"><path d="m164.195 262.847c-1.741-11.432-14.697-17.301-24.441-11.068l-30.097 19.258c-46.127 29.514-62.473 89.203-37.682 138.133l36.165 71.38c4.348 8.582 15.272 11.423 23.251 6.012 37.029-25.104 56.336-69.257 49.594-113.512z" fill="#a2d0f9"/><path d="m394.386 271.037-30.096-19.257c-9.743-6.233-22.7-.365-24.441 11.068l-16.79 110.203c-6.738 44.226 12.541 88.392 49.594 113.512 7.94 5.383 18.878 2.619 23.251-6.012l36.165-71.38c24.749-48.849 8.522-108.57-37.683-138.134z" fill="#a2d0f9"/><path d="m133.518 364.134c-22.568 8.735-48.133 8.473-72.838 3.856.94 14.218 4.728 28.219 11.295 41.181l36.165 71.38c4.352 8.59 15.273 11.422 23.251 6.012 37.029-25.104 56.336-69.257 49.594-113.512l-1.921-12.606c-17.388-1.87-32.927-1.196-45.546 3.689z" fill="#8bc4ff"/><path d="m442.439 376.659c-24.882 32.041-70.543 29.682-120.602 18.412 1.433 36.753 20.197 70.734 50.816 91.492 7.94 5.383 18.878 2.619 23.251-6.012 37.619-74.25 43.155-81.221 46.535-103.892z" fill="#8bc4ff"/><path d="m261.993 3.487c-5.834-4.649-14.108-4.649-19.942 0-96.735 77.084-135.929 245.357-88.525 387.425 2.179 6.531 8.292 10.936 15.177 10.936h166.639c6.885 0 12.998-4.405 15.177-10.936 45.927-137.645 11.272-307.9-88.526-387.425z" fill="#a2d0f9"/><path d="m354.117 266.272h-204.19c-9.109 0-16.386 7.604-15.984 16.704 1.658 37.648 8.247 73.963 19.583 107.936 2.179 6.531 8.292 10.936 15.177 10.936h166.639c6.885 0 12.998-4.405 15.177-10.936 11.336-33.973 17.924-70.288 19.583-107.936.401-9.1-6.877-16.704-15.985-16.704z" fill="#80b9ed"/><path d="m368.217 308.217c.873-8.34 1.511-16.755 1.885-25.241.401-9.1-6.876-16.704-15.984-16.704h-204.191c-9.109 0-16.386 7.604-15.984 16.704.91 20.665 3.315 40.924 7.166 60.618 34.635 13.267 74.887 18.059 105.43-9.534 27.074-24.459 74.693-29.03 121.678-25.843z" fill="#8bc4ff"/><path d="m261.993 3.487c-5.834-4.649-14.108-4.649-19.942 0-49.702 39.605-92.954 111.638-105.211 208.158 32.654 9.032 70.799 8.689 113.252-10.56 35.186-15.954 73.116-24.374 110.307-28.007-14.7-64.557-47.044-128.663-98.406-169.591z" fill="#b4dcf9"/><g fill="#2e58ff"><path d="m394.386 271.037-23.953-15.327c-2.369-116.567-50.729-206.236-108.44-252.223-5.834-4.649-14.108-4.649-19.942 0-57.731 46.004-106.073 135.781-108.44 252.223l-23.954 15.327c-46.127 29.514-62.473 89.203-37.682 138.133l36.165 71.38c4.352 8.59 15.273 11.422 23.251 6.012 28.266-19.163 46.973-50.071 50.359-84.715h54.272v86.194c0 8.836 7.164 16 16 16s16-7.164 16-16v-86.194h54.272c3.262 33.38 21.032 64.833 50.359 84.715 7.963 5.399 18.889 2.598 23.251-6.012l36.165-71.38c24.749-48.848 8.522-108.569-37.683-138.133zm-142.364-233.987c48.274 44.306 86.992 126.581 86.487 229.222h-70.487c0-22.61-32-22.638-32 0h-70.487c-.515-102.714 38.274-184.973 86.487-229.222zm-124.493 410.966-27.009-53.308c-17.414-34.371-6.071-75.95 26.384-96.716l7.603-4.865c1.962 28.97 6.886 57.098 14.734 84.031 4.156 27.271-4.84 52.8-21.712 70.858zm52.906-78.169c-6.812-22.954-11.311-46.9-13.455-71.576h69.043v71.576zm87.587-71.575h69.042c-2.144 24.676-6.643 48.621-13.455 71.576h-55.587zm135.502 96.436-27.009 53.308c-17.346-18.565-25.73-44.489-21.821-70.146.471-3.089 11.515-35.606 14.843-84.743l7.603 4.865c32.455 20.766 43.798 62.345 26.384 96.716z"/><circle cx="252.022" cy="171.769" r="35.849"/></g></svg>